<?xml version="1.0" encoding="UTF-8" standalone="no"?>
<!DOCTYPE svg PUBLIC "-//W3C//DTD SVG 1.1//EN"
 "http://www.w3.org/Graphics/SVG/1.1/DTD/svg11.dtd">
<!-- Generated by graphviz version 2.43.0 (0)
 -->
<!-- Title: G Pages: 1 -->
<svg width="90pt" height="250pt"
 viewBox="0.00 0.00 90.00 249.51" xmlns="http://www.w3.org/2000/svg" xmlns:xlink="http://www.w3.org/1999/xlink">
<g id="graph0" class="graph" transform="scale(1 1) rotate(0) translate(4 245.51)">
<title>G</title>
<polygon fill="white" stroke="transparent" points="-4,4 -4,-245.51 86,-245.51 86,4 -4,4"/>
<!-- 0 -->
<g id="node1" class="node">
<title>0</title>
<ellipse fill="black" stroke="black" cx="27" cy="-239.71" rx="1.8" ry="1.8"/>
</g>
<!-- 1 -->
<g id="node2" class="node">
<title>1</title>
<ellipse fill="none" stroke="black" cx="27" cy="-163.43" rx="27" ry="37.45"/>
<text text-anchor="middle" x="27" y="-174.73" font-family="Times,serif" font-size="14.00">0</text>
<text text-anchor="middle" x="27" y="-159.73" font-family="Times,serif" font-size="14.00">&#45;&#45;&#45;</text>
<text text-anchor="middle" x="27" y="-144.73" font-family="Times,serif" font-size="14.00">2</text>
</g>
<!-- 0&#45;&gt;1 -->
<g id="edge1" class="edge">
<title>0&#45;&gt;1</title>
<path fill="none" stroke="black" d="M27,-237.87C27,-234.83 27,-223.84 27,-211.26"/>
<polygon fill="black" stroke="black" points="30.5,-210.94 27,-200.94 23.5,-210.94 30.5,-210.94"/>
</g>
<!-- 1&#45;&gt;1 -->
<g id="edge2" class="edge">
<title>1&#45;&gt;1</title>
<path fill="none" stroke="black" d="M53.35,-173.52C63.53,-173.96 72,-170.6 72,-163.43 72,-158.84 68.53,-155.8 63.35,-154.34"/>
<polygon fill="black" stroke="black" points="63.64,-150.85 53.35,-153.34 62.95,-157.82 63.64,-150.85"/>
<text text-anchor="middle" x="77" y="-159.73" font-family="Times,serif" font-size="14.00">0</text>
</g>
<!-- 2 -->
<g id="node3" class="node">
<title>2</title>
<ellipse fill="none" stroke="black" cx="27" cy="-37.48" rx="27" ry="37.45"/>
<text text-anchor="middle" x="27" y="-48.78" font-family="Times,serif" font-size="14.00">1</text>
<text text-anchor="middle" x="27" y="-33.78" font-family="Times,serif" font-size="14.00">&#45;&#45;&#45;</text>
<text text-anchor="middle" x="27" y="-18.78" font-family="Times,serif" font-size="14.00">3</text>
</g>
<!-- 1&#45;&gt;2 -->
<g id="edge3" class="edge">
<title>1&#45;&gt;2</title>
<path fill="none" stroke="black" d="M16.28,-129.01C14.5,-122.12 12.93,-114.86 12,-107.95 10.81,-99.16 11.47,-89.82 13.04,-80.94"/>
<polygon fill="black" stroke="black" points="16.47,-81.67 15.15,-71.16 9.62,-80.2 16.47,-81.67"/>
<text text-anchor="middle" x="17" y="-96.75" font-family="Times,serif" font-size="14.00">1</text>
</g>
<!-- 2&#45;&gt;1 -->
<g id="edge5" class="edge">
<title>2&#45;&gt;1</title>
<path fill="none" stroke="black" d="M27,-75.16C27,-87.93 27,-102.42 27,-115.87"/>
<polygon fill="black" stroke="black" points="23.5,-115.91 27,-125.91 30.5,-115.91 23.5,-115.91"/>
<text text-anchor="middle" x="32" y="-96.75" font-family="Times,serif" font-size="14.00">1</text>
</g>
<!-- 2&#45;&gt;2 -->
<g id="edge4" class="edge">
<title>2&#45;&gt;2</title>
<path fill="none" stroke="black" d="M52.9,-49.03C63.28,-49.68 72,-45.83 72,-37.48 72,-32.12 68.42,-28.62 63.12,-26.96"/>
<polygon fill="black" stroke="black" points="63.2,-23.45 52.9,-25.92 62.49,-30.42 63.2,-23.45"/>
<text text-anchor="middle" x="77" y="-33.78" font-family="Times,serif" font-size="14.00">0</text>
</g>
</g>
</svg>
